<svg id="Layer_1" data-name="Layer 1" xmlns="http://www.w3.org/2000/svg" xmlns:xlink="http://www.w3.org/1999/xlink" viewBox="0 0 1526.15 1217.9">
  <defs>
    <style>
      .cls-1 {
        fill: none;
      }

      .cls-2 {
        clip-path: url(#clip-path);
      }

      .cls-3 {
        fill: hsla(0 , 0%, 5%, .03);
      }

      .cls-4 {
        fill: url(#New_Pattern_3);
      }
    </style>
    <clipPath id="clip-path">
      <rect class="cls-1" width="1526.15" height="1217.9"/>
    </clipPath>
    <pattern id="New_Pattern_3" data-name="New Pattern 3" width="1526.15" height="1217.9" patternUnits="userSpaceOnUse" viewBox="0 0 1526.15 1217.9">
      <rect class="cls-1" width="1526.15" height="1217.9"/>
      <g class="cls-2">
        <g>
          <g>
            <path class="cls-3" d="M-274.51,846.26l0,.07-.06-.08Z"/>
            <path class="cls-3" d="M-160.49,352.5c-.78-6.47-1.33-11.59-.89-14a87.58,87.58,0,0,1,4.47-17.26c1.44-4.27,1.75-6.76,1.71-8.6a16.57,16.57,0,0,0-.47-3.58,12.24,12.24,0,0,0-2-4.57,43.06,43.06,0,0,1,7.21,3.05,20,20,0,0,1,7.14,7.92c2.23,6.27.53,7.88-1.83,17.5-4.19,18,10.61,21.49,11.22,21.62,8.37,1.08,19.56-.93,23.92-2.06,8.48-2.21,16.31-7.31,23.81-11.75.69-.4,18.35-9.59,33.44-3.4.55.24,34.55,16.83,34.75,16.93,6.21,3.22,12.82,1.19,15.71-.31,15.72-7.07,40.53-48.67,66.72-45,17.76,1.9,29.17,7,36.37,23.61,5.77,13.26-2,33.23-7.5,42.33-4.18,7-11.1,15.2-20.24,18.66h0c-.56.21-1.12.39-1.62.55l-.45.13c-7.14,2.11-11.24.55-11.24.55s-9.94-8.5-11.39-8.91c0,0,12.86,3.64,26.92-8.56C87.37,367,92.41,349.88,91,339.27c-1.74-13.32-16.41-19.5-31-16.32s-21.22,11.73-25.5,16.68-20.14,28.25-37.31,33a42.47,42.47,0,0,1-11.8.61,45.19,45.19,0,0,1-8.5-2,112.37,112.37,0,0,1-10.5-4.74c-2.68-1.31-5.35-2.68-7.85-4l-13-6.71h0C-64.84,350.52-72.09,354-72.09,354h0l-.54.27c-1.56,1-3.33,2-5.28,3.12-5.62,3.13-12.75,8-20.71,10.43l-.3.12c-19.23,7.71-38.29,4.59-38.29,4.59C-141.06,372.21-158,371.17-160.49,352.5Z"/>
            <path class="cls-3" d="M105.79,387.78c15.13-6.08,67.58-16.69,84.74,28.92s63.22,32,63.22,32l-6.55,4.69c-71,41.17-73.72-24.22-94.92-46.55S92,402.68,99.11,414.9c6.25,10.79-1.41,19.5-3.3,21.4-.44-1-2.26-4.81-2.26-4.81A85.26,85.26,0,0,0,84,416.88a19.91,19.91,0,0,1-.13-4.63h0C84.81,403.9,92.4,393.18,105.79,387.78Z"/>
            <path class="cls-3" d="M118.45,526.77c1.06,2.32,3.19,4.39,4.72,4.79,0,0-3.2,7.18-16.24,5.4A92.43,92.43,0,0,1,76,502.15c5,1.81,13.28,1.91,19,1,.55.76,2.11,3.11,3.61,5.18a16.12,16.12,0,0,0,18.56,5c11.32-4.2,17-13.35,17.15-23.1.2-10.82-11.41-11.42-18.93-20.68s1.42-14.61,1.42-14.61c1.36,2.1,19.66,13.6,19.66,13.6,7.3,5.91,14.7,14.59,11.7,24.94a25.11,25.11,0,0,1-2.23,5,91,91,0,0,1-11.26,16.41C127.59,523.19,121.55,525.9,118.45,526.77Z"/>
            <path class="cls-3" d="M83.83,475.65s-10.61-1.53-19.15-23.46-17.06-48.43-28-53.93l8.9-7.31s27.12,14.67,33.31,68.39C78.85,459.34,81,472.6,83.83,475.65Z"/>
            <path class="cls-3" d="M381.27,908.55s-57.2-33.68-297.28-2S-272,850.32-275.88,843.67c51.29,30.11,220.34,59.84,360.05,33.92S229,790.18,229,768.18a56.83,56.83,0,0,0-1.17-11.34A62.1,62.1,0,0,0,224.54,746a72.25,72.25,0,0,0-6.17-11.91,109.8,109.8,0,0,0-21.79-24.19c-5.11-5.09-10.91-10.34-17.46-15.74l-.5-.36q-19.32-14.12-40.7-27.15c-3.56-2.17-7.12-4.27-10.69-6.34-27.31-17.38-64-31.44-106.76-40.68l-7.28-1.41s15.56-33.06,22.9-53.68c.36-1.21.77-2.41,1.24-3.59h0c6.63-20.09,23.3-30.89,41.47-36.15l12.62,12.8a50.83,50.83,0,0,0-12.71,2.82,35.71,35.71,0,0,0-23.6,30h0c-1.85,14.06,5.74,32,37.89,51.76,33.15,20.38,58.18,34.55,77.33,45h0q8.81,4.61,17.13,9.24c47.64,26.4,83.61,52.68,110.75,77.54l-.31,0C390.67,839.1,381.27,908.55,381.27,908.55Z"/>
          </g>
          <path class="cls-3" d="M-40.86,557.89q-25.95,25.47-53.62,49.5-20.8,18-42.35,35.21c-5.67,4-109.47,76.54-166.38,135.8,0,0-55.94,17.24-78.33,34.59a154.07,154.07,0,0,1,21.82-29c25.2-26.86,59-47.67,88.15-69h0c2.43-1.78,4.85-3.56,7.21-5.35,47.6-30.49,99.4-66,145.37-101.83h0q-17.19.57-33.76,2.07a134.85,134.85,0,0,1,.36-15.83c2.83-34.76,18.95-59.29,35.13-82.88,9.1-13.27,18.21-26.25,25-40.58,7.4-15.67,12-33,10.65-54.09h0c-1.69-26.59-8.36-34.14-8.36-34.14h.24a.31.31,0,0,0-.09-.11,98.63,98.63,0,0,1,19.35,3,42.05,42.05,0,0,1,7.66,2.94,25.94,25.94,0,0,1,6.63,4.75,19.51,19.51,0,0,1,4.94,8.33,27.68,27.68,0,0,1,.42,12.8c-4.2,24.16-7.5,32-31.94,68.5-3.93,5.85-8.39,12.45-13.5,20-26.52,39-14.9,61.71-6.29,71.36,3.62-1.18,61.31-20.73,95.44-73.18,35.23-54.19,40.37-72.5,40.37-72.5s0,.24.1.68c0-.27,0-.54,0-.77,0,0,.48,3.28,1.37,7.95,2.65,12.13,9.12,35.83,21.88,53.25C56.55,489.26,11.93,509.42-40.86,557.89Z"/>
        </g>
        <g>
          <g>
            <path class="cls-3" d="M488.56,1455.21l0,.07-.05-.08Z"/>
            <path class="cls-3" d="M602.58,961.45c-.77-6.47-1.32-11.59-.88-14a87.54,87.54,0,0,1,4.46-17.26c1.44-4.27,1.75-6.76,1.71-8.6a16,16,0,0,0-.47-3.58,12.38,12.38,0,0,0-2-4.57,42.62,42.62,0,0,1,7.2,3,19.83,19.83,0,0,1,7.14,7.92c2.24,6.27.53,7.88-1.82,17.5-4.2,18,10.6,21.49,11.21,21.62,8.38,1.08,19.57-.93,23.93-2.06,8.47-2.21,16.31-7.31,23.81-11.75.68-.4,18.34-9.59,33.43-3.4.55.24,34.56,16.83,34.75,16.93,6.21,3.22,12.82,1.19,15.71-.31,15.72-7.07,40.53-48.67,66.72-45,17.76,1.9,29.18,7,36.38,23.61,5.76,13.26-2,33.23-7.5,42.33-4.19,6.95-11.11,15.2-20.25,18.66h0c-.55.21-1.11.39-1.61.55l-.45.13c-7.15,2.11-11.24.55-11.24.55s-9.95-8.5-11.39-8.91c0,0,12.85,3.64,26.91-8.56,12.14-10.37,17.18-27.44,15.8-38-1.73-13.32-16.4-19.5-31-16.32s-21.22,11.73-25.5,16.68-20.14,28.25-37.31,33a42.38,42.38,0,0,1-11.79.61,45,45,0,0,1-8.5-2,112.37,112.37,0,0,1-10.5-4.74c-2.69-1.31-5.35-2.68-7.85-4l-13-6.71h0C698.23,959.47,691,963,691,963h0l-.54.27c-1.56,1-3.34,2-5.28,3.12-5.63,3.13-12.75,8-20.72,10.43l-.3.12c-19.22,7.71-38.29,4.59-38.29,4.59C622,981.16,605,980.12,602.58,961.45Z"/>
            <path class="cls-3" d="M868.86,996.73c15.14-6.08,67.59-16.69,84.75,28.92s63.22,32,63.22,32l-6.55,4.69c-71,41.17-73.72-24.22-94.92-46.55s-60.26-4.16-53.17,8.06c6.25,10.79-1.41,19.5-3.3,21.4-.44-1-2.27-4.81-2.27-4.81a84.67,84.67,0,0,0-9.53-14.61,19.69,19.69,0,0,1-.12-4.63h0C847.89,1012.85,855.48,1002.13,868.86,996.73Z"/>
            <path class="cls-3" d="M881.52,1135.72c1.06,2.32,3.2,4.39,4.73,4.79,0,0-3.21,7.18-16.25,5.4a92.45,92.45,0,0,1-30.94-34.81c4.94,1.81,13.28,1.91,19,1,.55.76,2.1,3.11,3.6,5.18a16.12,16.12,0,0,0,18.56,5c11.33-4.2,17-13.35,17.16-23.1.2-10.82-11.41-11.42-18.94-20.68s1.43-14.61,1.43-14.61c1.35,2.1,19.66,13.6,19.66,13.6,7.3,5.91,14.7,14.59,11.7,24.94a25.7,25.7,0,0,1-2.23,5,91.46,91.46,0,0,1-11.26,16.41C890.67,1132.14,884.62,1134.85,881.52,1135.72Z"/>
            <path class="cls-3" d="M846.9,1084.6s-10.6-1.53-19.14-23.46-17.07-48.43-28-53.93l8.89-7.31s27.13,14.67,33.31,68.39C841.92,1068.29,844.11,1081.55,846.9,1084.6Z"/>
            <path class="cls-3" d="M1144.35,1517.5s-57.21-33.68-297.28-2-356-56.23-359.88-62.88c51.3,30.11,220.35,59.84,360.05,33.92S992,1399.13,992,1377.13a56.82,56.82,0,0,0-1.16-11.34,62.14,62.14,0,0,0-3.25-10.85,72.25,72.25,0,0,0-6.17-11.91,109.49,109.49,0,0,0-21.78-24.19c-5.12-5.09-10.92-10.34-17.47-15.74l-.5-.36q-19.32-14.12-40.69-27.15c-3.56-2.17-7.13-4.27-10.69-6.34-27.31-17.38-64-31.44-106.77-40.68l-7.28-1.41s15.57-33.06,22.91-53.68c.35-1.21.77-2.41,1.23-3.59h0c6.63-20.09,23.3-30.89,41.47-36.15l12.63,12.8a50.91,50.91,0,0,0-12.72,2.82,35.71,35.71,0,0,0-23.6,30h0c-1.84,14.06,5.74,32,37.89,51.76,33.15,20.38,58.19,34.55,77.34,45h0q8.8,4.61,17.14,9.24c47.64,26.4,83.61,52.68,110.74,77.54l-.31,0C1153.75,1448.05,1144.35,1517.5,1144.35,1517.5Z"/>
          </g>
          <path class="cls-3" d="M722.22,1166.84q-26,25.47-53.62,49.5-20.8,18-42.35,35.21c-5.68,4-109.47,76.54-166.38,135.8,0,0-55.94,17.24-78.34,34.59a154.55,154.55,0,0,1,21.83-29c25.2-26.86,59-47.67,88.15-69h-.05q3.66-2.67,7.22-5.35c47.6-30.49,99.39-66,145.36-101.83h0q-17.21.57-33.76,2.07a137,137,0,0,1,.35-15.83c2.83-34.76,19-59.29,35.13-82.88,9.1-13.27,18.21-26.25,25-40.58,7.4-15.67,12-33,10.66-54.09h0C679.67,998.85,673,991.3,673,991.3h.24l-.09-.11a98.54,98.54,0,0,1,19.34,3,41.77,41.77,0,0,1,7.66,2.94,26,26,0,0,1,6.64,4.75,19.51,19.51,0,0,1,4.94,8.33,28,28,0,0,1,.42,12.8c-4.21,24.16-7.51,32-31.94,68.5-3.94,5.85-8.4,12.45-13.5,20-26.53,39-14.91,61.71-6.29,71.36,3.61-1.18,61.31-20.73,95.43-73.18,35.24-54.19,40.37-72.5,40.37-72.5s0,.24.1.68c0-.27,0-.54,0-.77,0,0,.49,3.28,1.37,8,2.66,12.13,9.12,35.83,21.89,53.25C819.63,1098.21,775,1118.37,722.22,1166.84Z"/>
        </g>
        <g>
          <g>
            <path class="cls-3" d="M488.56,237.31l0,.07-.05-.08Z"/>
            <path class="cls-3" d="M602.58-256.45c-.77-6.47-1.32-11.59-.88-14a87.54,87.54,0,0,1,4.46-17.26c1.44-4.27,1.75-6.76,1.71-8.6a16,16,0,0,0-.47-3.58,12.38,12.38,0,0,0-2-4.57,42.62,42.62,0,0,1,7.2,3,19.83,19.83,0,0,1,7.14,7.92c2.24,6.27.53,7.88-1.82,17.5-4.2,18,10.6,21.49,11.21,21.62,8.38,1.08,19.57-.93,23.93-2.06,8.47-2.21,16.31-7.31,23.81-11.75.68-.4,18.34-9.59,33.43-3.4.55.24,34.56,16.83,34.75,16.93,6.21,3.22,12.82,1.19,15.71-.31,15.72-7.07,40.53-48.67,66.72-45,17.76,1.9,29.18,6.95,36.38,23.61,5.76,13.26-2,33.23-7.5,42.33-4.19,7-11.11,15.2-20.25,18.66h0c-.55.21-1.11.39-1.61.55l-.45.13c-7.15,2.11-11.24.55-11.24.55s-9.95-8.5-11.39-8.91c0,0,12.85,3.64,26.91-8.56,12.14-10.37,17.18-27.44,15.8-38.05-1.73-13.32-16.4-19.5-31-16.32s-21.22,11.73-25.5,16.68-20.14,28.25-37.31,33a42.38,42.38,0,0,1-11.79.61,45,45,0,0,1-8.5-2,112.37,112.37,0,0,1-10.5-4.74c-2.69-1.31-5.35-2.68-7.85-4l-13-6.71h0c-10.45-5.38-17.69-1.88-17.69-1.88h0l-.54.27c-1.56,1-3.34,2-5.28,3.12-5.63,3.13-12.75,8-20.72,10.43l-.3.12c-19.22,7.71-38.29,4.59-38.29,4.59C622-236.74,605-237.78,602.58-256.45Z"/>
            <path class="cls-3" d="M868.86-221.17c15.14-6.08,67.59-16.69,84.75,28.92s63.22,32,63.22,32l-6.55,4.69c-71,41.17-73.72-24.22-94.92-46.55s-60.26-4.16-53.17,8.06c6.25,10.79-1.41,19.5-3.3,21.4-.44-1-2.27-4.81-2.27-4.81a84.67,84.67,0,0,0-9.53-14.61,19.69,19.69,0,0,1-.12-4.63h0C847.89-205,855.48-215.77,868.86-221.17Z"/>
            <path class="cls-3" d="M881.52-82.18c1.06,2.32,3.2,4.39,4.73,4.79,0,0-3.21,7.18-16.25,5.4a92.45,92.45,0,0,1-30.94-34.81c4.94,1.81,13.28,1.91,19,1,.55.76,2.1,3.11,3.6,5.18a16.12,16.12,0,0,0,18.56,5c11.33-4.2,17-13.35,17.16-23.1.2-10.82-11.41-11.42-18.94-20.68S879.87-154,879.87-154c1.35,2.1,19.66,13.6,19.66,13.6,7.3,5.91,14.7,14.59,11.7,24.94a25.7,25.7,0,0,1-2.23,5,91.46,91.46,0,0,1-11.26,16.41C890.67-85.76,884.62-83,881.52-82.18Z"/>
            <path class="cls-3" d="M846.9-133.3s-10.6-1.53-19.14-23.46-17.07-48.43-28-53.93l8.89-7.31s27.13,14.67,33.31,68.39C841.92-149.61,844.11-136.35,846.9-133.3Z"/>
            <path class="cls-3" d="M1144.35,299.6s-57.21-33.68-297.28-2-356-56.23-359.88-62.88c51.3,30.11,220.35,59.84,360.05,33.92S992,181.23,992,159.23a56.82,56.82,0,0,0-1.16-11.34A62.14,62.14,0,0,0,987.61,137a72.25,72.25,0,0,0-6.17-11.91,109.49,109.49,0,0,0-21.78-24.19c-5.12-5.09-10.92-10.34-17.47-15.74l-.5-.36Q922.37,70.73,901,57.69c-3.56-2.17-7.13-4.27-10.69-6.34C863,34,826.27,19.91,783.54,10.67l-7.28-1.41s15.57-33.06,22.91-53.68c.35-1.21.77-2.41,1.23-3.59h0C807-68.1,823.7-78.9,841.87-84.16l12.63,12.8a50.91,50.91,0,0,0-12.72,2.82,35.71,35.71,0,0,0-23.6,30h0c-1.84,14.06,5.74,32,37.89,51.76,33.15,20.38,58.19,34.55,77.34,45h0q8.8,4.61,17.14,9.24c47.64,26.4,83.61,52.68,110.74,77.54l-.31,0C1153.75,230.15,1144.35,299.6,1144.35,299.6Z"/>
          </g>
          <path class="cls-3" d="M722.22-51.06q-26,25.47-53.62,49.5-20.8,18-42.35,35.21c-5.68,4-109.47,76.54-166.38,135.8,0,0-55.94,17.24-78.34,34.59a154.55,154.55,0,0,1,21.83-29c25.2-26.86,59-47.67,88.15-69h-.05q3.66-2.67,7.22-5.35c47.6-30.49,99.39-66,145.36-101.83h0Q626.8-.58,610.25.92a137,137,0,0,1,.35-15.83c2.83-34.76,19-59.29,35.13-82.88,9.1-13.27,18.21-26.25,25-40.58,7.4-15.67,12-33,10.66-54.09h0C679.67-219,673-226.6,673-226.6h.24l-.09-.11a98.54,98.54,0,0,1,19.34,3,41.77,41.77,0,0,1,7.66,2.94,26,26,0,0,1,6.64,4.75,19.51,19.51,0,0,1,4.94,8.33,28,28,0,0,1,.42,12.8c-4.21,24.16-7.51,32-31.94,68.5-3.94,5.85-8.4,12.45-13.5,20-26.53,39-14.91,61.71-6.29,71.36,3.61-1.18,61.31-20.73,95.43-73.18,35.24-54.19,40.37-72.5,40.37-72.5s0,.24.1.68c0-.27,0-.54,0-.77,0,0,.49,3.28,1.37,7.95,2.66,12.13,9.12,35.83,21.89,53.25C819.63-119.69,775-99.53,722.22-51.06Z"/>
        </g>
        <g>
          <g>
            <path class="cls-3" d="M1251.64,844.92l0,.07-.06-.08Z"/>
            <path class="cls-3" d="M1365.66,351.16c-.78-6.47-1.33-11.59-.89-14a87.58,87.58,0,0,1,4.47-17.26c1.44-4.27,1.75-6.76,1.71-8.6a16.57,16.57,0,0,0-.47-3.58,12.24,12.24,0,0,0-2-4.57,43.06,43.06,0,0,1,7.21,3.05,20,20,0,0,1,7.14,7.92c2.23,6.27.53,7.88-1.83,17.5-4.19,18,10.61,21.49,11.22,21.62,8.37,1.08,19.56-.93,23.92-2.06,8.48-2.21,16.31-7.31,23.81-11.75.69-.4,18.35-9.59,33.44-3.4.55.24,34.55,16.83,34.75,16.93,6.21,3.22,12.82,1.19,15.71-.31,15.72-7.07,40.53-48.67,66.72-45,17.76,1.9,29.17,6.95,36.37,23.61,5.77,13.26-2,33.23-7.5,42.33-4.18,6.95-11.1,15.2-20.24,18.66h0c-.56.21-1.12.39-1.62.55l-.45.13c-7.14,2.11-11.24.55-11.24.55s-9.94-8.5-11.39-8.91c0,0,12.86,3.64,26.92-8.56,12.14-10.37,17.18-27.44,15.8-38.05-1.74-13.32-16.41-19.5-31-16.32s-21.22,11.73-25.5,16.68-20.14,28.25-37.31,33a42.47,42.47,0,0,1-11.8.61,45.19,45.19,0,0,1-8.5-2,112.37,112.37,0,0,1-10.5-4.74c-2.68-1.31-5.35-2.68-7.85-4l-13-6.71h0c-10.44-5.38-17.69-1.88-17.69-1.88h0l-.54.27c-1.56,1-3.33,2-5.28,3.12-5.62,3.13-12.75,8-20.71,10.43l-.3.12c-19.23,7.71-38.29,4.59-38.29,4.59C1385.09,370.87,1368.1,369.83,1365.66,351.16Z"/>
            <path class="cls-3" d="M1631.94,386.44c15.13-6.08,67.58-16.69,84.74,28.92s63.22,32,63.22,32l-6.55,4.69c-71,41.17-73.72-24.22-94.92-46.55s-60.26-4.16-53.17,8.06c6.25,10.79-1.41,19.5-3.3,21.4-.44-1-2.26-4.81-2.26-4.81a85.26,85.26,0,0,0-9.53-14.61,19.91,19.91,0,0,1-.13-4.63h0C1611,402.56,1618.55,391.84,1631.94,386.44Z"/>
            <path class="cls-3" d="M1644.6,525.43c1.06,2.32,3.19,4.39,4.72,4.79,0,0-3.2,7.18-16.24,5.4a92.43,92.43,0,0,1-30.95-34.81c4.95,1.81,13.28,1.91,19,1,.55.76,2.11,3.11,3.61,5.18a16.12,16.12,0,0,0,18.56,5c11.32-4.2,17-13.35,17.15-23.1.2-10.82-11.41-11.42-18.93-20.68s1.42-14.61,1.42-14.61c1.36,2.1,19.66,13.6,19.66,13.6,7.3,5.91,14.7,14.59,11.7,24.94a25.11,25.11,0,0,1-2.23,5,91,91,0,0,1-11.26,16.41C1653.74,521.85,1647.7,524.56,1644.6,525.43Z"/>
            <path class="cls-3" d="M1610,474.31s-10.61-1.53-19.15-23.46-17.06-48.43-28-53.93l8.9-7.31S1598.81,404.28,1605,458C1605,458,1607.19,471.26,1610,474.31Z"/>
            <path class="cls-3" d="M1907.42,907.21s-57.2-33.68-297.28-2-356-56.23-359.87-62.88c51.29,30.11,220.34,59.84,360,33.92s144.78-87.41,144.78-109.41a56.83,56.83,0,0,0-1.17-11.34,62.1,62.1,0,0,0-3.24-10.85,72.25,72.25,0,0,0-6.17-11.91,109.8,109.8,0,0,0-21.79-24.19c-5.11-5.09-10.91-10.34-17.46-15.74l-.5-.36q-19.32-14.12-40.7-27.15c-3.56-2.17-7.12-4.27-10.69-6.34-27.31-17.38-64-31.44-106.76-40.68l-7.28-1.41s15.56-33.06,22.9-53.68c.36-1.21.77-2.41,1.24-3.59h0c6.63-20.09,23.3-30.89,41.47-36.15l12.62,12.8a50.83,50.83,0,0,0-12.71,2.82,35.71,35.71,0,0,0-23.6,30h0c-1.85,14.06,5.74,32,37.89,51.76,33.15,20.38,58.18,34.55,77.33,45h0q8.81,4.6,17.13,9.24c47.64,26.4,83.61,52.68,110.75,77.54l-.31,0C1916.82,837.76,1907.42,907.21,1907.42,907.21Z"/>
          </g>
          <path class="cls-3" d="M1485.29,556.55q-25.95,25.47-53.62,49.5-20.81,18-42.35,35.21c-5.67,4-109.47,76.54-166.38,135.8,0,0-55.94,17.24-78.33,34.59a154.07,154.07,0,0,1,21.82-29c25.2-26.86,59-47.67,88.15-69h0c2.43-1.78,4.85-3.56,7.21-5.35,47.6-30.49,99.4-66,145.37-101.83h0q-17.19.57-33.76,2.07a134.85,134.85,0,0,1,.36-15.83c2.83-34.76,19-59.29,35.13-82.88,9.1-13.27,18.21-26.25,25-40.58,7.4-15.67,12-33,10.65-54.09h0c-1.69-26.59-8.36-34.14-8.36-34.14h.24a.31.31,0,0,0-.09-.11,98.63,98.63,0,0,1,19.35,3,42.05,42.05,0,0,1,7.66,2.94,25.94,25.94,0,0,1,6.63,4.75,19.51,19.51,0,0,1,4.94,8.33,27.68,27.68,0,0,1,.42,12.8c-4.2,24.16-7.5,32-31.94,68.5-3.93,5.85-8.39,12.45-13.5,19.95-26.52,39-14.9,61.71-6.29,71.36,3.62-1.18,61.31-20.73,95.44-73.18,35.23-54.19,40.37-72.5,40.37-72.5s0,.24.1.68c0-.27,0-.54,0-.77,0,0,.48,3.28,1.37,7.95,2.65,12.13,9.12,35.83,21.88,53.25C1582.7,487.92,1538.08,508.08,1485.29,556.55Z"/>
        </g>
        <rect class="cls-1" width="1526.15" height="1217.9"/>
        <rect class="cls-1" width="1526.15" height="1217.9"/>
      </g>
    </pattern>
  </defs>
  <g class="cls-2">
    <g>
      <g>
        <path class="cls-3" d="M-137.21,372.55s19.06,3.12,38.29-4.59l.3-.12c8-2.47,15.09-7.3,20.71-10.43,2-1.08,3.72-2.15,5.28-3.12l.54-.27h0s7.25-3.5,17.69,1.88h0l13,6.71c2.5,1.28,5.17,2.65,7.85,4A112.37,112.37,0,0,0-23,371.31a45.19,45.19,0,0,0,8.5,2,42.47,42.47,0,0,0,11.8-.61c17.17-4.79,33-28.09,37.31-33s10.93-13.5,25.5-16.68,29.23,3,31,16.32c1.38,10.61-3.66,27.68-15.8,38.05-14.06,12.2-26.92,8.56-26.92,8.56,1.45.41,11.39,8.91,11.39,8.91s4.1,1.56,11.24-.55l.45-.13c.5-.16,1.06-.34,1.62-.55h0c9.14-3.46,16.06-11.71,20.24-18.66,5.48-9.1,13.27-29.07,7.5-42.33-7.2-16.66-18.61-21.71-36.37-23.61-26.19-3.64-51,38-66.72,45-2.89,1.5-9.5,3.53-15.71.31-.2-.1-34.2-16.69-34.75-16.93-15.09-6.19-32.75,3-33.44,3.4-7.5,4.44-15.33,9.54-23.81,11.75-4.36,1.13-15.55,3.14-23.92,2.06-.61-.13-15.41-3.6-11.22-21.62,2.36-9.62,4.06-11.23,1.83-17.5a20,20,0,0,0-7.14-7.92,43.06,43.06,0,0,0-7.21-3.05,12.24,12.24,0,0,1,2,4.57,16.57,16.57,0,0,1,.47,3.58c0,1.84-.27,4.33-1.71,8.6a87.58,87.58,0,0,0-4.47,17.26c-.44,2.41.11,7.53.89,14C-158,371.17-141.06,372.21-137.21,372.55Z"/>
        <path class="cls-3" d="M83.89,412.25h0a19.91,19.91,0,0,0,.13,4.63,85.26,85.26,0,0,1,9.53,14.61s1.82,3.8,2.26,4.81c1.89-1.9,9.55-10.61,3.3-21.4-7.09-12.22,32-30.4,53.17-8.06s23.92,87.72,94.92,46.55l6.55-4.69s-46.06,13.6-63.22-32-69.61-35-84.74-28.92C92.4,393.18,84.81,403.9,83.89,412.25Z"/>
        <path class="cls-3" d="M134.66,514.89a91,91,0,0,0,11.26-16.41,25.11,25.11,0,0,0,2.23-5c3-10.35-4.4-19-11.7-24.94,0,0-18.3-11.5-19.66-13.6,0,0-9,5.35-1.42,14.61s19.13,9.86,18.93,20.68c-.19,9.75-5.83,18.9-17.15,23.1a16.12,16.12,0,0,1-18.56-5c-1.5-2.07-3.06-4.42-3.61-5.18-5.72.91-14,.81-19-1a92.43,92.43,0,0,0,31,34.81c13,1.78,16.24-5.4,16.24-5.4-1.53-.4-3.66-2.47-4.72-4.79C121.55,525.9,127.59,523.19,134.66,514.89Z"/>
        <path class="cls-3" d="M78.85,459.34C72.66,405.62,45.54,391,45.54,391l-8.9,7.31c11,5.5,19.5,32,28,53.93s19.15,23.46,19.15,23.46C81,472.6,78.85,459.34,78.85,459.34Z"/>
        <path class="cls-3" d="M297.94,753.91l.31,0c-27.14-24.86-63.11-51.14-110.75-77.54q-8.33-4.63-17.13-9.24h0c-19.15-10.45-44.18-24.62-77.33-45-32.15-19.75-39.74-37.7-37.89-51.76h0a35.71,35.71,0,0,1,23.6-30,50.83,50.83,0,0,1,12.71-2.82L78.8,524.79C60.63,530.05,44,540.85,37.33,560.94h0c-.47,1.18-.88,2.38-1.24,3.59-7.34,20.62-22.9,53.68-22.9,53.68l7.28,1.41c42.72,9.24,79.45,23.3,106.76,40.68,3.57,2.07,7.13,4.17,10.69,6.34q21.38,13,40.7,27.15l.5.36c6.55,5.4,12.35,10.65,17.46,15.74a109.8,109.8,0,0,1,21.79,24.19A72.25,72.25,0,0,1,224.54,746a62.1,62.1,0,0,1,3.24,10.85A56.83,56.83,0,0,1,229,768.18c0,22-5.08,83.5-144.78,109.41s-308.76-3.81-360-33.92c3.92,6.65,119.8,94.57,359.87,62.88s297.28,2,297.28,2S390.67,839.1,297.94,753.91Z"/>
      </g>
      <path class="cls-3" d="M56.55,489.26C43.79,471.84,37.32,448.14,34.67,436c-.89-4.67-1.37-7.95-1.37-7.95,0,.23,0,.5,0,.77-.06-.44-.1-.68-.1-.68S28,446.46-7.22,500.65c-34.13,52.45-91.82,72-95.44,73.18-8.61-9.65-20.23-32.32,6.29-71.36,5.11-7.5,9.57-14.1,13.5-20,24.44-36.47,27.74-44.34,31.94-68.5a27.68,27.68,0,0,0-.42-12.8,19.51,19.51,0,0,0-4.94-8.33,25.94,25.94,0,0,0-6.63-4.75,42.05,42.05,0,0,0-7.66-2.94,98.63,98.63,0,0,0-19.35-3,.31.31,0,0,1,.09.11h-.24s6.67,7.55,8.36,34.14h0c1.34,21.1-3.25,38.42-10.65,54.09-6.76,14.33-15.87,27.31-25,40.58-16.18,23.59-32.3,48.12-35.13,82.88a134.85,134.85,0,0,0-.36,15.83q16.56-1.5,33.76-2.07h0c-46,35.83-97.77,71.34-145.37,101.83-2.36,1.79-4.78,3.57-7.21,5.35h0c-29.16,21.29-62.95,42.1-88.15,69a154.07,154.07,0,0,0-21.82,29c22.39-17.35,78.33-34.59,78.33-34.59,56.91-59.26,160.71-131.84,166.38-135.8q21.54-17.21,42.35-35.21,27.66-24,53.62-49.5C11.93,509.42,56.55,489.26,56.55,489.26Z"/>
    </g>
    <g>
      <g>
        <path class="cls-3" d="M625.86,981.5s19.07,3.12,38.29-4.59l.3-.12c8-2.47,15.09-7.3,20.72-10.43,1.94-1.08,3.72-2.15,5.28-3.12L691,963h0s7.24-3.5,17.69,1.88h0l13,6.71c2.5,1.28,5.16,2.65,7.85,4a112.37,112.37,0,0,0,10.5,4.74,45,45,0,0,0,8.5,2,42.38,42.38,0,0,0,11.79-.61c17.17-4.79,33-28.09,37.31-33s10.94-13.5,25.5-16.68,29.24,3,31,16.32c1.38,10.61-3.66,27.68-15.8,38-14.06,12.2-26.91,8.56-26.91,8.56,1.44.41,11.39,8.91,11.39,8.91s4.09,1.56,11.24-.55l.45-.13c.5-.16,1.06-.34,1.61-.55h0c9.14-3.46,16.06-11.71,20.25-18.66,5.47-9.1,13.26-29.07,7.5-42.33-7.2-16.66-18.62-21.71-36.38-23.61-26.19-3.64-51,38-66.72,45-2.89,1.5-9.5,3.53-15.71.31-.19-.1-34.2-16.69-34.75-16.93-15.09-6.19-32.75,3-33.43,3.4-7.5,4.44-15.34,9.54-23.81,11.75-4.36,1.13-15.55,3.14-23.93,2.06-.61-.13-15.41-3.6-11.21-21.62,2.35-9.62,4.06-11.23,1.82-17.5a19.83,19.83,0,0,0-7.14-7.92,42.62,42.62,0,0,0-7.2-3,12.38,12.38,0,0,1,2,4.57,16,16,0,0,1,.47,3.58c0,1.84-.27,4.33-1.71,8.6a87.54,87.54,0,0,0-4.46,17.26c-.44,2.41.11,7.53.88,14C605,980.12,622,981.16,625.86,981.5Z"/>
        <path class="cls-3" d="M847,1021.2h0a19.69,19.69,0,0,0,.12,4.63,84.67,84.67,0,0,1,9.53,14.61s1.83,3.8,2.27,4.81c1.89-1.9,9.55-10.61,3.3-21.4-7.09-12.22,32-30.4,53.17-8.06s23.92,87.72,94.92,46.55l6.55-4.69s-46.06,13.6-63.22-32-69.61-35-84.75-28.92C855.48,1002.13,847.89,1012.85,847,1021.2Z"/>
        <path class="cls-3" d="M897.74,1123.84A91.46,91.46,0,0,0,909,1107.43a25.7,25.7,0,0,0,2.23-5c3-10.35-4.4-19-11.7-24.94,0,0-18.31-11.5-19.66-13.6,0,0-9,5.35-1.43,14.61s19.14,9.86,18.94,20.68c-.19,9.75-5.83,18.9-17.16,23.1a16.12,16.12,0,0,1-18.56-5c-1.5-2.07-3-4.42-3.6-5.18-5.72.91-14.06.81-19-1A92.45,92.45,0,0,0,870,1145.91c13,1.78,16.25-5.4,16.25-5.4-1.53-.4-3.67-2.47-4.73-4.79C884.62,1134.85,890.67,1132.14,897.74,1123.84Z"/>
        <path class="cls-3" d="M841.92,1068.29c-6.18-53.72-33.31-68.39-33.31-68.39l-8.89,7.31c11,5.5,19.5,32,28,53.93s19.14,23.46,19.14,23.46C844.11,1081.55,841.92,1068.29,841.92,1068.29Z"/>
        <path class="cls-3" d="M1061,1362.86l.31,0c-27.13-24.86-63.1-51.14-110.74-77.54q-8.33-4.63-17.14-9.24h0c-19.15-10.45-44.19-24.62-77.34-45-32.15-19.75-39.73-37.7-37.89-51.76h0a35.71,35.71,0,0,1,23.6-30,50.91,50.91,0,0,1,12.72-2.82l-12.63-12.8C823.7,1139,807,1149.8,800.4,1169.89h0c-.46,1.18-.88,2.38-1.23,3.59-7.34,20.62-22.91,53.68-22.91,53.68l7.28,1.41c42.73,9.24,79.46,23.3,106.77,40.68,3.56,2.07,7.13,4.17,10.69,6.34q21.38,13,40.69,27.15l.5.36c6.55,5.4,12.35,10.65,17.47,15.74A109.49,109.49,0,0,1,981.44,1343a72.25,72.25,0,0,1,6.17,11.91,62.14,62.14,0,0,1,3.25,10.85,56.82,56.82,0,0,1,1.16,11.34c0,22-5.07,83.5-144.78,109.41s-308.75-3.81-360-33.92c3.93,6.65,119.8,94.57,359.88,62.88s297.28,2,297.28,2S1153.75,1448.05,1061,1362.86Z"/>
      </g>
      <path class="cls-3" d="M819.63,1098.21c-12.77-17.42-19.23-41.12-21.89-53.25-.88-4.67-1.37-8-1.37-8,0,.23,0,.5,0,.77-.06-.44-.1-.68-.1-.68s-5.13,18.31-40.37,72.5c-34.12,52.45-91.82,72-95.43,73.18-8.62-9.65-20.24-32.32,6.29-71.36,5.1-7.5,9.56-14.1,13.5-20,24.43-36.47,27.73-44.34,31.94-68.5a28,28,0,0,0-.42-12.8,19.51,19.51,0,0,0-4.94-8.33,26,26,0,0,0-6.64-4.75,41.77,41.77,0,0,0-7.66-2.94,98.54,98.54,0,0,0-19.34-3l.09.11H673s6.67,7.55,8.36,34.14h0c1.33,21.1-3.26,38.42-10.66,54.09-6.76,14.33-15.87,27.31-25,40.58-16.17,23.59-32.3,48.12-35.13,82.88a137,137,0,0,0-.35,15.83q16.56-1.5,33.76-2.07h0c-46,35.83-97.76,71.34-145.36,101.83q-3.56,2.68-7.22,5.35h.05c-29.17,21.29-62.95,42.1-88.15,69a154.55,154.55,0,0,0-21.83,29c22.4-17.35,78.34-34.59,78.34-34.59,56.91-59.26,160.7-131.84,166.38-135.8q21.54-17.21,42.35-35.21,27.66-24,53.62-49.5C775,1118.37,819.63,1098.21,819.63,1098.21Z"/>
    </g>
    <g>
      <g>
        <path class="cls-3" d="M488.55,237.3l.05.08,0-.07Z"/>
        <path class="cls-3" d="M1061,145l.31,0c-27.13-24.86-63.1-51.14-110.74-77.54q-8.33-4.63-17.14-9.24h0c-19.15-10.45-44.19-24.62-77.34-45-32.15-19.75-39.73-37.7-37.89-51.76h0a35.71,35.71,0,0,1,23.6-30,50.91,50.91,0,0,1,12.72-2.82l-12.63-12.8C823.7-78.9,807-68.1,800.4-48h0c-.46,1.18-.88,2.38-1.23,3.59C791.83-23.8,776.26,9.26,776.26,9.26l7.28,1.41C826.27,19.91,863,34,890.31,51.35c3.56,2.07,7.13,4.17,10.69,6.34q21.38,13,40.69,27.15l.5.36c6.55,5.4,12.35,10.65,17.47,15.74a109.49,109.49,0,0,1,21.78,24.19A72.25,72.25,0,0,1,987.61,137a62.14,62.14,0,0,1,3.25,10.85A56.82,56.82,0,0,1,992,159.23c0,22-5.07,83.5-144.78,109.41s-308.75-3.81-360-33.92c3.93,6.65,119.8,94.57,359.88,62.88s297.28,2,297.28,2S1153.75,230.15,1061,145Z"/>
      </g>
      <path class="cls-3" d="M819.63-119.69c-12.77-17.42-19.23-41.12-21.89-53.25-.88-4.67-1.37-7.95-1.37-7.95,0,.23,0,.5,0,.77-.06-.44-.1-.68-.1-.68s-5.13,18.31-40.37,72.5c-34.12,52.45-91.82,72-95.43,73.18-8.62-9.65-20.24-32.32,6.29-71.36,5.1-7.5,9.56-14.1,13.5-20,24.43-36.47,27.73-44.34,31.94-68.5a28,28,0,0,0-.42-12.8,19.51,19.51,0,0,0-4.94-8.33,26,26,0,0,0-6.64-4.75,41.77,41.77,0,0,0-7.66-2.94,98.54,98.54,0,0,0-19.34-3l.09.11H673s6.67,7.55,8.36,34.14h0c1.33,21.1-3.26,38.42-10.66,54.09-6.76,14.33-15.87,27.31-25,40.58-16.17,23.59-32.3,48.12-35.13,82.88A137,137,0,0,0,610.25.92Q626.81-.58,644-1.15h0c-46,35.83-97.76,71.34-145.36,101.83q-3.56,2.68-7.22,5.35h.05c-29.17,21.29-62.95,42.1-88.15,69a154.55,154.55,0,0,0-21.83,29c22.4-17.35,78.34-34.59,78.34-34.59,56.91-59.26,160.7-131.84,166.38-135.8q21.54-17.2,42.35-35.21,27.66-24,53.62-49.5C775-99.53,819.63-119.69,819.63-119.69Z"/>
    </g>
    <g>
      <g>
        <path class="cls-3" d="M1251.62,844.91l.06.08,0-.07Z"/>
        <path class="cls-3" d="M1388.94,371.21s19.06,3.12,38.29-4.59l.3-.12c8-2.47,15.09-7.3,20.71-10.43,2-1.08,3.72-2.15,5.28-3.12l.54-.27h0s7.25-3.5,17.69,1.88h0l13,6.71c2.5,1.28,5.17,2.65,7.85,4a112.37,112.37,0,0,0,10.5,4.74,45.19,45.19,0,0,0,8.5,2,42.47,42.47,0,0,0,11.8-.61c17.17-4.79,33-28.09,37.31-33s10.93-13.5,25.5-16.68,29.23,3,31,16.32c1.38,10.61-3.66,27.68-15.8,38.05-14.06,12.2-26.92,8.56-26.92,8.56,1.45.41,11.39,8.91,11.39,8.91s4.1,1.56,11.24-.55l.45-.13c.5-.16,1.06-.34,1.62-.55h0c9.14-3.46,16.06-11.71,20.24-18.66,5.48-9.1,13.27-29.07,7.5-42.33-7.2-16.66-18.61-21.71-36.37-23.61-26.19-3.64-51,38-66.72,45-2.89,1.5-9.5,3.53-15.71.31-.2-.1-34.2-16.69-34.75-16.93-15.09-6.19-32.75,3-33.44,3.4-7.5,4.44-15.33,9.54-23.81,11.75-4.36,1.13-15.55,3.14-23.92,2.06-.61-.13-15.41-3.6-11.22-21.62,2.36-9.62,4.06-11.23,1.83-17.5a20,20,0,0,0-7.14-7.92,43.06,43.06,0,0,0-7.21-3.05,12.24,12.24,0,0,1,2,4.57,16.57,16.57,0,0,1,.47,3.58c0,1.84-.27,4.33-1.71,8.6a87.58,87.58,0,0,0-4.47,17.26c-.44,2.41.11,7.53.89,14C1368.1,369.83,1385.09,370.87,1388.94,371.21Z"/>
        <path class="cls-3" d="M1824.09,752.57l.31,0c-27.14-24.86-63.11-51.14-110.75-77.54q-8.33-4.64-17.13-9.24h0c-19.15-10.45-44.18-24.62-77.33-45-32.15-19.75-39.74-37.7-37.89-51.76h0a35.71,35.71,0,0,1,23.6-30,50.83,50.83,0,0,1,12.71-2.82L1605,523.45c-18.17,5.26-34.84,16.06-41.47,36.15h0c-.47,1.18-.88,2.38-1.24,3.59-7.34,20.62-22.9,53.68-22.9,53.68l7.28,1.41c42.72,9.24,79.45,23.3,106.76,40.68,3.57,2.07,7.13,4.17,10.69,6.34q21.38,13,40.7,27.15l.5.36c6.55,5.4,12.35,10.65,17.46,15.74a109.8,109.8,0,0,1,21.79,24.19,72.25,72.25,0,0,1,6.17,11.91,62.1,62.1,0,0,1,3.24,10.85,56.83,56.83,0,0,1,1.17,11.34c0,22-5.08,83.5-144.78,109.41s-308.76-3.81-360-33.92c3.92,6.65,119.8,94.57,359.87,62.88s297.28,2,297.28,2S1916.82,837.76,1824.09,752.57Z"/>
      </g>
      <path class="cls-3" d="M1582.7,487.92c-12.76-17.42-19.23-41.12-21.88-53.25-.89-4.67-1.37-7.95-1.37-7.95,0,.23,0,.5,0,.77-.06-.44-.1-.68-.1-.68s-5.14,18.31-40.37,72.5c-34.13,52.45-91.82,72-95.44,73.18-8.61-9.65-20.23-32.32,6.29-71.36,5.11-7.5,9.57-14.1,13.5-19.95,24.44-36.47,27.74-44.34,31.94-68.5a27.68,27.68,0,0,0-.42-12.8,19.51,19.51,0,0,0-4.94-8.33,25.94,25.94,0,0,0-6.63-4.75,42.05,42.05,0,0,0-7.66-2.94,98.63,98.63,0,0,0-19.35-3,.31.31,0,0,1,.09.11h-.24s6.67,7.55,8.36,34.14h0c1.34,21.1-3.25,38.42-10.65,54.09-6.76,14.33-15.87,27.31-25,40.58-16.18,23.59-32.3,48.12-35.13,82.88a134.85,134.85,0,0,0-.36,15.83q16.56-1.5,33.76-2.07h0c-46,35.83-97.77,71.34-145.37,101.83-2.36,1.79-4.78,3.57-7.21,5.35h0c-29.16,21.29-62.95,42.1-88.15,69a154.07,154.07,0,0,0-21.82,29c22.39-17.35,78.33-34.59,78.33-34.59,56.91-59.26,160.71-131.84,166.38-135.8q21.54-17.21,42.35-35.21,27.66-24,53.62-49.5C1538.08,508.08,1582.7,487.92,1582.7,487.92Z"/>
    </g>
    <rect class="cls-1" width="1526.15" height="1217.9"/>
    <rect class="cls-1" width="1526.15" height="1217.9"/>
    <rect class="cls-1" width="1526.15" height="1217.9"/>
    <rect class="cls-4" width="1526.15" height="1217.9"/>
  </g>
</svg>
