<svg xmlns="http://www.w3.org/2000/svg" viewBox="0 0 130.39 94.04">
  <defs>
    <style>
      .footprints2-1, .footprints2-2 {
        fill: #333;
        opacity: 1;
      }

      .footprints2-1 {
        fill-rule: evenodd;
      }
    </style>
  </defs>
  <g id="Layer_2" data-name="Layer 2">
    <g id="Page_1" data-name="Page 1">
      <g id="Layer_1-2" data-name="Layer 1">
        <path class="footprints2-1" d="M88.24,26.05l2.39,1.32c.12.07.16,0,.21-.11s.89-1.56,1-2,.44-1.66-.37-2.14a1.62,1.62,0,0,0-2.09.42,8.58,8.58,0,0,0-.84,1.36c-.12.26-.37.72-.43.83a.37.37,0,0,0-.05.2l.14.09Zm-6.87,11.4C81.54,35,82,33,84.2,31.53a9.5,9.5,0,0,0,2.69-2.67c.3-.44,1.08-1.92,1.17-2.14s.3-.09.43,0,1.44.79,1.55.87.12.19,0,.34c-.48.78-2.16,3.44-2.31,4.93s-.07,4.06-1,5.25a17.49,17.49,0,0,1-4.33,3.1c-.37.17-.53.19-.62.09-.34-.37-.44-3.25-.4-3.82Z"/>
        <path class="footprints2-1" d="M15.06,11.84a20.07,20.07,0,0,1-2.36.86c-2.54.58-4.91-.58-6.82,0A11.15,11.15,0,0,0,.76,16.61c-1.17,1.57-1.06,2,.86,2.75s6,1.94,8,.88c1.76-.9,3.81-2.72,5.45-3.36.67-.27,1.49-.52,1.84-.64.12,0,.17-.1.11-.2l-1.69-4.1c-.07-.13-.1-.17-.27-.1Zm.67-.4L17.65,16a.25.25,0,0,0,.33.18,9.51,9.51,0,0,0,2.9-1.14c1.54-.87,2.26-2.49,1.17-4A3,3,0,0,0,18.39,10c-1.13.47-2.11.93-2.53,1.16-.15.08-.23.12-.13.32Z"/>
        <path class="footprints2-1" d="M63,2.18l1.81,2.06c.08.1.16,0,.23,0S66.41,3,66.69,2.7s1-1.41.37-2.14A1.62,1.62,0,0,0,65,.26a7.5,7.5,0,0,0-1.24,1L63,1.88a.38.38,0,0,0-.12.17l.1.13ZM52.67,10.57c1-2.24,2.09-4,4.67-4.6a9.57,9.57,0,0,0,3.44-1.6,24.22,24.22,0,0,0,1.83-1.62c.16-.18.31,0,.41.13s1.09,1.22,1.17,1.33,0,.23-.1.33c-.72.57-3.2,2.5-3.84,3.85S58.8,12.19,57.5,13a17.85,17.85,0,0,1-5.13,1.45c-.4,0-.56,0-.61-.12-.2-.47.68-3.21.91-3.74Z"/>
        <path class="footprints2-1" d="M67.67,47.54a21,21,0,0,0-1.31,2.14C65.3,52,66,54.58,65.07,56.34a11.13,11.13,0,0,1-4.87,4.23c-1.78.84-2.18.64-2.54-1.37s-.74-6.2.69-8c1.23-1.53,3.41-3.18,4.37-4.66.39-.59.8-1.35,1-1.67.07-.11.13-.14.22-.07l3.7,2.45c.12.1.15.13,0,.28Zm.52-.57-4.13-2.76a.26.26,0,0,1-.11-.36,9.34,9.34,0,0,1,1.69-2.61c1.16-1.33,2.89-1.72,4.18-.36a3,3,0,0,1,.34,3.78c-.67,1-1.32,1.88-1.62,2.24-.11.13-.17.2-.35.07Z"/>
        <path class="footprints2-2" d="M40,45.65c.69,0,1.38,0,2.08-.12h0v-.47s-.92.08-1.39.1l-.65,0-.06.47ZM14.71,28.33l0,.12.08.23.07.23.08.23.08.23.08.22.08.22.08.22.09.22.07.17.38-.25L15.77,30l-.08-.21-.08-.22-.08-.22-.08-.22-.08-.22-.08-.22-.07-.23-.08-.23,0-.12-.4.22ZM16,31.63l0,.09.1.2.09.2.1.19.09.2.1.19.1.2.1.19.1.19.11.18.05.1.36-.3,0-.1L17.15,33l-.09-.19-.1-.18-.1-.19-.1-.19L16.67,32l-.1-.2-.09-.2-.09-.19,0-.09-.38.27Zm1.64,3,0,.06.11.17.12.17.11.17.11.16.12.17.11.16.12.16.12.16.11.16.12.16,0,0,.32-.35,0,0L19,35.86l-.11-.16-.12-.15-.11-.16-.11-.16-.12-.17-.11-.16-.11-.17-.11-.16L18,34.4l0-.06-.35.32Zm2,2.7,0,0,.12.14.13.15.12.14.13.13.13.14.13.14.13.13.13.13.13.13.13.13.1.1.29-.39-.1-.09-.13-.13L21,38.12,20.84,38l-.13-.13-.13-.13-.12-.14-.13-.13-.12-.14-.13-.14L20,37l0,0-.31.36Zm2.33,2.32.06,0,.13.12.14.11.14.11.13.11.14.11.14.11.14.11.14.1.14.1.14.11.14.1h0l.25-.42h0l-.14-.1-.13-.1-.14-.1-.14-.1L23.08,40l-.13-.1-.14-.11-.13-.11-.14-.11-.13-.11-.14-.12-.06,0-.27.4Zm2.6,1.93.11.06.14.09.15.09.14.09.14.08.15.08.14.09.15.08.14.08.15.08.14.07.15.08.05,0,.21-.44-.05,0-.14-.08L26.17,42,26,41.91l-.14-.08-.14-.08-.14-.08-.15-.08-.14-.08-.14-.09L25,41.33l-.14-.08-.11-.07-.24.43Zm2.83,1.52,0,0,.14.06.15.07.14.06.15.06.14.06.15.06.14.06.15.06.14.06.15,0,.14.06.15,0,.09,0,.18-.46-.09,0-.15-.06L29,43.3l-.14-.06-.15-.05-.14-.06-.14-.06L28.31,43,28.17,43,28,42.89l-.15-.06-.14-.07-.14-.06h0l-.2.44Zm3,1.15.06,0,.14.05.15,0,.14,0,.14,0,.14,0,.14,0,.14,0,.14,0,.14,0,.14,0,.14,0,.14,0,.14,0h.05l.14-.47H32.4l-.13,0-.14,0-.14,0-.14,0-.14,0-.14,0-.13,0-.14,0-.14,0L31,44l-.14,0-.14,0-.15,0-.06,0-.16.46Zm3.13.79.12,0,.13,0,.13,0,.14,0,.13,0,.13,0,.13,0,.13,0,.13,0,.12,0,.13,0,.13,0h.12l.13,0,.12,0h.08l.1-.48h-.19l-.13,0-.12,0-.13,0h-.12l-.13,0-.13,0-.12,0-.13,0-.13,0-.13,0-.13,0-.13,0-.13,0-.13,0-.12.47Zm3.21.46h2l.07-.48h-2l-.09.48Z"/>
        <polygon class="footprints2-1" points="14.08 22.88 14.98 24.32 15.88 25.77 14.63 25.74 13.45 26.71 13.76 24.8 14.08 22.88 14.08 22.88"/>
        <path class="footprints2-2" d="M61,14a13.73,13.73,0,0,1-.44-2v0h0l.4,0h0a13.34,13.34,0,0,0,.43,1.95L61,14Zm18.56,16-1.39-.33.09-.39,1.34.31.07,0-.11.39ZM77,29.36l-.14-.05-.18-.06-.17-.06-.18-.06-.17-.07L76,29l-.17-.07-.17-.07-.17-.06-.17-.07-.17-.07-.05,0,.16-.38,0,0,.16.06.17.07.17.06.16.07.17.06.18.07.17.06.17.07.18.06.17.06.14.05-.13.38Zm-3-1.21-.11,0L73.71,28,73.55,28l-.15-.07-.16-.08-.15-.07-.15-.08-.15-.07-.14-.08-.15-.08-.14-.07-.15-.08-.07,0,.19-.36.08,0,.14.08.14.07.15.08.14.08.15.07.15.07.14.08.15.07.16.07.15.08.15.07.11.05-.17.37Zm-2.9-1.54-.1-.06-.13-.08-.14-.09-.13-.08-.13-.08-.12-.09-.13-.08L70.06,26l-.12-.09-.13-.08-.12-.09-.12-.08-.12-.09-.09-.07.24-.33.09.07.11.08.12.09.13.08.12.09.12.08.12.08.13.08.12.09.13.08.13.08.13.08.13.08.1.06-.21.35Zm-2.7-1.88-.07-.06-.11-.09-.1-.09L68,24.4l-.11-.09-.1-.09-.11-.09-.1-.09-.1-.09-.1-.09-.1-.09-.1-.09-.1-.09L67,23.5l-.09-.09,0,0,.28-.29,0,0,.09.09.1.09.09.09.1.09.1.09.1.09.1.09.1.09.1.08.11.09.1.09.11.09.1.08.11.09.07.06-.26.32ZM66,22.49h0l-.09-.09-.08-.09-.09-.09-.08-.09-.08-.1-.08-.09-.08-.09-.08-.09-.08-.09-.08-.1-.08-.09L65,21.39l-.08-.09-.07-.09-.07-.1L64.69,21l-.07-.09.32-.25.07.09.07.09.08.09.07.09.07.09.08.09.07.09.08.09.08.09.08.09.07.09.08.09.08.09.09.09.08.09.08.09.09.1h0l-.3.27Zm-2.07-2.56h0l-.06-.09-.06-.09-.06-.09-.06-.09-.06-.09-.06-.09-.06-.08-.05-.09-.06-.09L63.3,19l-.06-.09-.05-.09,0-.09-.06-.09,0-.08L63,18.5l0-.09,0-.08-.05-.09,0,0,.36-.2,0,.05,0,.09.05.08,0,.09.05.08,0,.09,0,.08.06.09.05.09,0,.08.06.09,0,.09.06.09,0,.08.06.09.06.09.06.09.06.09.06.09.06.08h0l-.34.23Zm-1.66-2.84v0l0-.08,0-.08,0-.08,0-.08,0-.08,0-.08,0-.08,0-.08,0-.08,0-.08,0-.07,0-.08,0-.08,0-.07,0-.08,0-.07,0-.08,0-.07,0-.07,0-.08,0-.07,0-.07,0-.07,0-.07v0l.38-.14v0l0,.07,0,.07,0,.07,0,.07,0,.07,0,.07,0,.07,0,.08,0,.07,0,.07,0,.08,0,.07,0,.08,0,.07,0,.08,0,.08,0,.07,0,.08,0,.08,0,.08,0,.08,0,.07,0,.08,0,.08,0,0-.37.17Z"/>
        <polygon class="footprints2-1" points="82.71 30.85 81.46 29.81 80.2 28.77 80.26 30 79.47 31.07 81.09 30.96 82.71 30.85 82.71 30.85"/>
        <path class="footprints2-1" d="M113.85,92.16s.07-2.59.08-2.72-.1-.13-.19-.13-1.81-.08-2.24,0-1.68.37-1.74,1.31a1.62,1.62,0,0,0,1.34,1.65,7.33,7.33,0,0,0,1.59.12h.94a.51.51,0,0,0,.21,0v-.17Zm13.31.92c-2.27,1-4.27,1.49-6.57.17A9.7,9.7,0,0,0,117,92.08a24.23,24.23,0,0,0-2.46-.06c-.23,0-.21-.23-.21-.37s0-1.64,0-1.77.13-.19.3-.18c.92.09,4.06.37,5.46-.18s3.65-1.78,5.15-1.46A17.88,17.88,0,0,1,130,90.48c.32.25.41.39.36.51-.17.47-2.69,1.87-3.22,2.09Z"/>
        <path class="footprints2-2" d="M68.25,65.5l0,0-.08-.16-.08-.16L68,65l-.08-.16-.08-.16-.08-.16-.08-.16-.07-.16L67.51,64l-.08-.16-.07-.16-.37.17.07.16.08.16.08.17.08.16.08.16.07.16.08.16.08.16.08.16.08.16.08.16,0,.06.37-.19Zm31.84,24.64-.18,0-.19,0-.18,0-.18,0-.18,0-.19,0-.18,0-.18,0h0l-.1.39h0l.18,0,.18.05.18,0,.19,0,.18.05.18,0,.19,0,.18,0,.1-.39Zm-2.66-.7-.05,0-.17,0L97,89.32l-.18,0-.17,0-.17-.06-.18,0-.17,0L96,89l-.17,0-.17-.06-.15,0-.13.39.15,0,.18,0,.17.06.18,0,.17.06.18,0,.17.06.18,0,.17,0,.18.05.18,0,0,0,.11-.39Zm-3.1-1,0,0-.17-.06-.17-.06-.17-.06-.17-.06-.16-.06-.17-.06L93.11,88l-.17-.07-.16-.06-.17-.06-.16-.07h0l-.15.37h0l.16.07.17.06.17.06.16.07.17.06.17.06.16.06.17.06.17.07.17.06.17.06.06,0,.13-.39Zm-3-1.17-.14-.06L91,87.15l-.16-.06L90.68,87,90.52,87l-.16-.07-.16-.07-.15-.08-.16-.07-.15-.07-.16-.07-.13-.06-.18.36.14.07.15.07.16.07.16.07.16.08.16.07.15.07.16.07.16.07.16.07.16.07.15.06.16-.38Zm-3-1.36h0l-.15-.07-.15-.08-.15-.08-.15-.08-.15-.08-.15-.08-.15-.07-.15-.08L87,85.22l-.14-.09-.15-.08L86.56,85l-.2.36.15.08.15.08.15.08.15.08.15.08.15.08.15.08.15.08.15.08.15.08.15.08.16.07h0l.18-.37Zm-2.84-1.56-.11-.06-.14-.09-.14-.08L85,84,84.84,84l-.15-.08-.14-.09-.14-.09-.14-.09-.14-.09L84,83.42l-.14-.09-.07,0-.22.33.06,0,.14.09.14.09.14.09.14.09.14.09.15.09.14.09.14.09.15.08.14.09.14.09.11.06.21-.35ZM82.79,82.6h0l-.13-.1-.13-.09-.14-.1-.13-.09-.13-.1L82,82l-.13-.1-.13-.09-.13-.1-.13-.1-.13-.1-.13-.1,0,0-.25.32,0,0,.13.1.13.1.13.1.13.1.14.1.13.1.13.1.14.09.13.1.14.1.13.09.14.1,0,0,.24-.34ZM80.2,80.65l0-.05L80,80.5l-.13-.1-.12-.11-.13-.1-.12-.11L79.4,80l-.12-.1-.12-.11L79,79.65l-.12-.11-.12-.1-.12-.11h0l-.28.3h0l.13.11.12.11.12.11.13.1.12.11.13.11.12.11.13.1.12.11.13.11.13.1.12.11,0,0,.26-.31ZM77.78,78.5l-.07-.06-.12-.12-.11-.11-.12-.11L77.24,78l-.11-.11L77,77.75l-.12-.12-.11-.11-.11-.12-.12-.12-.11-.11-.1-.1-.29.28.09.1.12.11.11.12.12.12.11.12.12.12.12.11.11.12.12.11.12.12.12.11.12.12.06.06.29-.29Zm-2.26-2.32-.09-.1L75.32,76l-.11-.12-.11-.13-.1-.12-.11-.12-.11-.13-.11-.12-.1-.13L74.46,75l-.11-.12-.1-.13,0-.06-.32.25.05.07.11.13.11.12.1.13.11.13.11.12.11.13.11.13.11.12.11.13.11.12.11.12.08.1.31-.27ZM73.44,73.7l0,0-.1-.14-.11-.13-.1-.13-.1-.13-.1-.14-.1-.13-.1-.13-.1-.14-.1-.13-.1-.14-.09-.14-.1-.12-.33.23.09.13.1.14.1.13.1.14.1.14.1.13.1.14.11.13.1.13.1.14.1.13.1.13,0,0,.33-.25Zm-1.91-2.62L71.45,71l-.09-.14-.1-.14-.09-.14-.09-.15-.1-.14-.09-.14L70.8,70l-.09-.15-.09-.14-.1-.15-.09-.14h0l-.35.21h0l.09.15.09.14.09.15.09.14.1.15.09.14.09.15.1.14.09.14L71,71l.09.15.08.12.34-.23ZM69.8,68.34l-.08-.13-.08-.15-.09-.15-.08-.15-.09-.15-.09-.15-.08-.15-.09-.16L69,67,69,66.85l-.09-.16-.06-.11-.36.19.06.12.09.15.08.15.09.16.08.15.09.15.08.16.09.15.09.15.08.15.09.15.08.14.35-.21Z"/>
        <polygon class="footprints2-1" points="103.46 90.78 101.86 91.12 100.25 91.46 100.87 90.39 100.66 89.08 102.06 89.93 103.46 90.78 103.46 90.78"/>
      </g>
    </g>
  </g>
</svg>
