<svg xmlns="http://www.w3.org/2000/svg" viewBox="0 0 953.87 1114.04">
  <defs>
    <style>
      .cls-1 {
        fill: #94a5d1;
      }

      .cls-2 {
        fill: #001957;
      }

      .cls-3 {
        fill: none;
      }

      .cls-4 {
        fill: #fff;
      }

      .cls-5 {
        fill: #fc0;
      }
    </style>
  </defs>
  <g id="Layer_2" data-name="Layer 2">
    <g id="Illustration">
      <g id="Cat">
        <g>
          <path class="cls-1" d="M383.51,362.69c-.82-1.29-20.17-32.09-23.35-76-2.94-40.63,7.81-100.5,75.73-155l2.6-2.07c32.91-26.19,47.95-47.08,27.42-76.4-9.69-13.82-26.12-21.78-44-21.5a63.19,63.19,0,0,0-29.54,7.64,13.57,13.57,0,0,1-17-3.42h0a13.59,13.59,0,0,1,3.9-20.45,91.15,91.15,0,0,1,42.12-11c26.92-.51,52,11.83,66.89,33.12,16.78,24,18.69,49.11,5.53,72.73-10.2,18.29-27.12,31.74-38.31,40.65L453,153c-47.12,37.79-69.19,82.12-65.6,131.74,2.69,37.09,19,63,19.15,63.29Z"/>
          <path class="cls-2" d="M382.14,368.88l-2.41-3.78c-.85-1.33-20.78-33.06-24-78.07-3-41.7,8-103.1,77.39-158.79l2.61-2.08c36.4-29,43.09-46.7,26.55-70.33C453.46,43.3,438.38,36,422,36.24a58.83,58.83,0,0,0-27.45,7.09A18.1,18.1,0,0,1,377.08,11.6,95,95,0,0,1,421.26,0c28.55-.6,54.91,12.56,70.65,35,17.84,25.47,19.84,52.26,5.77,77.48-10.63,19.06-28,32.85-39.43,42l-2.51,2c-45.89,36.81-67.39,79.85-63.92,127.92,2.58,35.65,18.31,61,18.46,61.21l2.38,3.78ZM422.8,27.27c19.05,0,36.47,8.71,46.78,23.42C492,82.76,475.4,106,441.28,133.17l-2.6,2.07c-66.39,53.25-76.91,111.59-74.05,151.15a175.74,175.74,0,0,0,20.4,70l15.47-9.86a158.77,158.77,0,0,1-17.62-61.47c-3.7-51.19,18.93-96.8,67.26-135.57l2.52-2c10.92-8.69,27.42-21.81,37.19-39.33,12.28-22,10.45-45.51-5.28-68-14-20-37.6-31.64-63.14-31.22a86.14,86.14,0,0,0-40,10.48,8.92,8.92,0,0,0-4.45,6.11,9.19,9.19,0,0,0,1.88,7.59,9.06,9.06,0,0,0,11.38,2.31,67.79,67.79,0,0,1,31.61-8.19Z"/>
        </g>
        <g>
          <path class="cls-1" d="M319.85,283.27l-4.48-87.94A26.41,26.41,0,0,0,262.61,198l4.51,88.44-15.25,178s74.34,29.06,105.65-8.52C385.17,422.69,374.32,325.45,319.85,283.27Z"/>
          <path class="cls-2" d="M307.77,479.69c-28.59,0-55.65-10.37-57.53-11.1l-3.12-1.22,15.51-181-4.49-88.13a30.89,30.89,0,1,1,61.7-3.15L324.23,281c27.61,22.28,46.78,60.76,51.44,103.44,3.42,31.37-2.08,59.15-14.71,74.31C347.56,474.84,327.31,479.69,307.77,479.69Zm-51.14-18.33c14.11,4.81,72.06,22.13,97.44-8.34,11.11-13.33,15.85-38.6,12.69-67.6-4.49-41.14-23.05-78-49.65-98.61l-1.63-1.26-4.59-90a21.93,21.93,0,1,0-43.8,2.23l4.53,88.75,0,.3Z"/>
        </g>
        <g>
          <path class="cls-1" d="M545,401.53l-4.82-94.45a26.41,26.41,0,0,0-27.72-25h0a26.41,26.41,0,0,0-25,27.72l4.81,94.45Z"/>
          <path class="cls-2" d="M488,408.92l-5-98.92a30.89,30.89,0,0,1,61.71-3.14l5,98.92ZM513.78,286.5c-.38,0-.76,0-1.13,0a22,22,0,0,0-20.79,23l4.59,90,43.8-2.24-4.59-90A22,22,0,0,0,513.78,286.5Z"/>
        </g>
        <rect class="cls-2" x="521.68" y="283.89" width="5.98" height="41.87" transform="translate(-14.85 27.13) rotate(-2.92)"/>
        <rect class="cls-2" x="506.22" y="282.24" width="5.98" height="40.89" transform="translate(-14.76 26.33) rotate(-2.92)"/>
        <rect class="cls-2" x="274.79" y="173.26" width="5.98" height="41.87" transform="translate(-9.53 14.4) rotate(-2.92)"/>
        <rect class="cls-2" x="289.95" y="170.05" width="5.98" height="40.89" transform="translate(-9.33 15.17) rotate(-2.92)"/>
        <g>
          <path class="cls-3" d="M632.43,843.09a180,180,0,0,0-34-78.74C572.25,729.73,562,711.48,562,711.48l-133.76-.68v-.17l-16.19.09-16.18-.09v.17l-133.76.68s-10.27,18.25-36.39,52.87a180.06,180.06,0,0,0-34.06,78.74C182,900.91,188,1012.23,261.24,1083.8c0,0,23.77,29.68,140.56,25.32q10.24-.37,20.48,0c116.79,4.36,140.56-25.32,140.56-25.32C636.11,1012.23,642.06,900.91,632.43,843.09Z"/>
          <path class="cls-2" d="M444.83,1114q-10.74,0-22.71-.44c-6.69-.25-13.47-.25-20.15,0-113.19,4.21-141.11-23.47-144-26.73-75.64-74-80.06-188.51-70.74-244.52a185.22,185.22,0,0,1,34.9-80.7c25.58-33.9,36-52.18,36.06-52.36l1.28-2.27,131.9-.68v-.21l20.7.1,20.64-.1v.21l131.91.68,1.28,2.27c.1.18,10.47,18.46,36.05,52.36a185.17,185.17,0,0,1,34.9,80.7h0c9.33,56,4.9,170.5-70.74,244.52C563.43,1089.9,539.12,1114,444.83,1114ZM264.67,716c-3.53,5.9-14.28,23.13-35.38,51.1a176.21,176.21,0,0,0-33.22,76.77c-9,54.33-4.83,165.34,68.31,236.77l.36.41c.2.22,25,27.84,136.9,23.64,6.9-.25,13.9-.25,20.81,0,111.85,4.18,136.7-23.42,136.94-23.7l.32-.35c73.13-71.43,77.34-182.44,68.3-236.77a176.19,176.19,0,0,0-33.21-76.77c-21.11-28-31.86-45.2-35.39-51.1l-135.66-.69v-.12l-11.68.06-11.73-.06v.12Z"/>
        </g>
        <path class="cls-2" d="M275.89,1035.34l-2-8.73c6.94-1.61,171.21-39,275.23.17l-3.16,8.39C444.47,996.92,277.56,1035,275.89,1035.34Z"/>
        <path class="cls-2" d="M587.62,828.09a212.21,212.21,0,0,0-11.67-25l7.86-4.31A220.63,220.63,0,0,1,596,824.84Z"/>
        <path class="cls-2" d="M578.6,941l-8.94-.67a176.25,176.25,0,0,0-8-68.07l8.52-2.78A185,185,0,0,1,578.6,941Z"/>
        <g>
          <path class="cls-1" d="M291.91,356.21s-121,69.86-44.3,303.3c0,0-1.7,107.35,23.86,167,0,0-15.34,52.82-6.82,90.31,0,0,66.46-10.22,90.31-39.19,0,0,71.57,18.74,126.09,0,0,0,42.6,22.15,73.27,22.15,0,0,1.71-30.67-6.81-81.79,0,0,20.44-93.72,11.92-153.35,0,0,52.83-170.4-10.22-270.93C549.21,393.7,453.79,274.42,291.91,356.21Z"/>
          <path class="cls-2" d="M261.21,921.87l-.93-4.07c-7.95-35,3.92-81.76,6.45-91C242.56,768.74,243,670.62,243.12,660.2c-17.49-53.45-26-102.77-25.42-146.62.51-35.45,7-67.44,19.21-95.07,21-47.44,51.48-65.44,52.76-66.18l.22-.12c85.19-43,152.08-30.29,193.2-12,44.57,19.81,68.62,49.46,69.62,50.71l.3.42c33.24,53,34.34,125,29.42,176A559.6,559.6,0,0,1,564,665c7.86,57.41-9.8,143.06-11.94,153.11,8.34,50.51,6.8,80.66,6.73,81.93l-.24,4.23h-4.24c-28.24,0-65.17-17.57-73.62-21.79-49.48,16.2-110.46,3.41-124.16.17-26,28.28-88.49,38.19-91.21,38.61Zm32.86-561.73c-1.8,1.1-30,18.82-49.24,62.64-18.33,41.79-32,116.54,7,235.33l.24.72,0,.76c0,1.06-1.39,107.09,23.5,165.15l.63,1.47-.45,1.54c-.14.5-13.8,48.29-7.59,83.88,14.77-2.79,64.2-13.64,83.32-36.86l1.82-2.21,2.77.72c.71.19,70.93,18.17,123.51.1l1.81-.62,1.71.88c.4.21,38,19.6,66.84,21.5.11-10.14-.36-37.35-6.87-76.42l-.15-.85.19-.84c.2-.93,20.17-93.63,11.87-151.77l-.15-1,.3-1c.52-1.68,51.4-169.34-9.59-267-2.06-2.49-25.53-30-66.49-48.1C422,323,359.74,327,294.07,360.14Z"/>
        </g>
        <path class="cls-2" d="M347.33,860.86c-1.22,0-2-.06-2.13-.07l-.47,0-.45-.14C302.94,848,282.39,734.14,281.54,729.3l8.82-1.55c5.53,31.3,26.33,114.25,56,124.13,2.25.07,12.76.08,18-6.78,4.49-5.93,4.21-16.24-.82-29.82l-.09-.25c-.49-1.63-12.12-40.27-12.12-78h9c0,35.4,11,72.87,11.7,75.26,6.2,16.8,6,29.68-.53,38.27C364.38,859.86,352.24,860.86,347.33,860.86Z"/>
        <path class="cls-2" d="M511.72,856.63a17.25,17.25,0,0,1-2.41-.14l-.17,0c-8-1.59-14-5.49-18-11.61-7.53-11.56-4.75-27-4.29-29.28,4.94-43.11,0-76.66,0-77l8.87-1.33c.21,1.42,5.14,35.18,0,79.56l-.08.46c0,.13-2.89,13.69,3,22.73,2.63,4,6.59,6.53,12.09,7.66.72.08,8.19.73,16.68-6.39,10.41-8.75,23.26-30.11,25.3-82.19l9,.35c-1.76,44.8-11.48,74.75-28.89,89C524.05,855.63,515.7,856.63,511.72,856.63Z"/>
        <ellipse class="cls-2" cx="432.58" cy="780.28" rx="14.48" ry="10.22" transform="translate(-39.19 23.05) rotate(-2.92)"/>
        <path class="cls-2" d="M428.69,775.17c-.1-13.44,3.74-24,11.42-31.41C451.9,732.39,468.29,733,469,733l-.38,9c-.12,0-13.37-.4-22.33,8.3-5.8,5.63-8.71,14-8.62,24.83Z"/>
        <path class="cls-2" d="M427,775.64c-1-10.83-4.78-18.87-11.17-23.88-9.88-7.75-22.85-6-23-5.93l-1.3-8.87c.68-.1,16.94-2.35,29.82,7.75,8.39,6.59,13.29,16.71,14.56,30.09Z"/>
        <g>
          <path class="cls-4" d="M249.94,660.67c38.39,1.73,226.85,4.81,306.63.72,3.8-.2,7.12,2.44,7.12,6.26V705a11.48,11.48,0,0,1-11.48,11.48H254.83A11.48,11.48,0,0,1,243.35,705V667A6.31,6.31,0,0,1,249.94,660.67Z"/>
          <path class="cls-2" d="M552.21,721H254.83a16,16,0,0,1-16-16V667a10.8,10.8,0,0,1,11.28-10.79c40,1.8,228.39,4.71,306.19.72A11.64,11.64,0,0,1,564.9,660a10.49,10.49,0,0,1,3.28,7.66V705A16,16,0,0,1,552.21,721ZM249.66,665.15a1.83,1.83,0,0,0-1.83,1.83v38a7,7,0,0,0,7,7H552.21a7,7,0,0,0,7-7V667.65a1.51,1.51,0,0,0-.49-1.16,2.57,2.57,0,0,0-1.92-.63c-78,4-267,1.09-307.06-.71h-.08Z"/>
        </g>
        <path class="cls-2" d="M438.51,685.25c-76.94,0-182.81-2.48-184.19-2.51l.21-9c1.8,0,180.34,4.22,241.67,1.7l.37,9C482.29,685,461.71,685.25,438.51,685.25Z"/>
        <path class="cls-2" d="M414.19,705.64c-55.94,0-104.41-.74-105.31-.75l.14-9c1.65,0,165.12,2.5,238.23-1.7l.51,8.95C514.12,705.11,461.48,705.64,414.19,705.64Z"/>
        <circle class="cls-2" cx="387.97" cy="812.87" r="12.78"/>
        <circle class="cls-2" cx="474.24" cy="812.87" r="12.78"/>
        <circle class="cls-2" cx="333.66" cy="970.48" r="5.11"/>
        <circle class="cls-2" cx="319.18" cy="949.19" r="7.67"/>
        <path class="cls-2" d="M195.53,953.21l-4-8.05,13.73-6.74a20.72,20.72,0,0,1,21.37,1.84l1.22.89a11.76,11.76,0,0,0,13.88,0,20.86,20.86,0,0,1,23.73-.48l2.33,1.56a11.86,11.86,0,0,0,12.73.23l13.26-8.17,4.7,7.64-13.27,8.16a20.8,20.8,0,0,1-22.39-.4l-2.34-1.56a11.83,11.83,0,0,0-13.48.27,20.69,20.69,0,0,1-24.42,0l-1.23-.89a11.78,11.78,0,0,0-12.14-1Z"/>
        <path class="cls-2" d="M531.21,956.62l-4-8L541,941.83a20.7,20.7,0,0,1,21.36,1.84l1.23.89a11.76,11.76,0,0,0,13.88,0,20.82,20.82,0,0,1,23.72-.48l2.34,1.55a11.83,11.83,0,0,0,12.72.24l13.27-8.17,4.7,7.63-13.27,8.17a20.78,20.78,0,0,1-22.39-.41l-2.34-1.55a11.83,11.83,0,0,0-13.48.27,20.68,20.68,0,0,1-24.42,0l-1.23-.89a11.78,11.78,0,0,0-12.14-1Z"/>
      </g>
      <g id="Stars">
        <path class="cls-2" d="M102.12,659.75,86.23,656.3l-3.6-15.86a1.24,1.24,0,0,0-2.41,0l-3.61,15.93-15.9,3.77a1.23,1.23,0,0,0,0,2.4L76.62,666l3.6,15.85a1.24,1.24,0,0,0,2.41,0l3.62-15.92,15.89-3.77a1.24,1.24,0,0,0,0-2.41Z"/>
        <path class="cls-2" d="M710.22,402.76l-15.88-3.45-3.61-15.85a1.22,1.22,0,0,0-1.2-1,1.24,1.24,0,0,0-1.2,1l-3.62,15.92-15.89,3.77a1.24,1.24,0,0,0,0,2.41L684.73,409l3.6,15.85a1.23,1.23,0,0,0,1.2,1,1.21,1.21,0,0,0,1.2-1l3.62-15.92,15.9-3.77a1.24,1.24,0,0,0,0-2.41Z"/>
        <path class="cls-2" d="M21.91,596.18l-8.22-1.79-1.86-8.2a.64.64,0,0,0-1.25,0l-1.87,8.24-8.22,2A.64.64,0,0,0,0,597a.63.63,0,0,0,.5.61l8.22,1.79,1.86,8.2a.64.64,0,0,0,1.25,0l1.87-8.24,8.22-2a.62.62,0,0,0,.49-.62A.63.63,0,0,0,21.91,596.18Z"/>
      </g>
      <g id="Fish">
        <path class="cls-2" d="M405.17,1021.89s-3.11,17.57,6.23,30.93c0,0,25.25-5.49,13.72-34.77Z"/>
        <g>
          <path class="cls-5" d="M416.89,1021.16s-.73,41.17,25.8,58.38c0,0,16.11-35.51-13-61.49Z"/>
          <path class="cls-2" d="M444.62,1086.13l-4.37-2.83c-28.3-18.35-27.88-60.44-27.84-62.22l.06-3.46,18.46-4.49,1.75,1.57c31.2,27.86,14.27,66.3,14.09,66.69Zm-23.15-61.48c.49,9,3.29,33.66,19,47.61,2.85-10,6.08-31.64-12.1-49.29Z"/>
        </g>
        <g>
          <path class="cls-5" d="M454.7,1000.34S480,970.48,519,970.48c0,0,8.27,21.49-28.88,41.44,0,0,13.55,26.91,9.89,48.68,0,0-28.4-6.38-45.93-44.68Z"/>
          <path class="cls-2" d="M503.61,1066l-4.62-1c-1.25-.28-30.77-7.33-49-47.19l-.45-1,.76-18.19,1-1.18C452.37,996.16,478.41,966,519,966H522l1.11,2.87c.38,1,8.68,23.9-27.25,44.94,3.71,8.52,11.55,29.39,8.5,47.54Zm-45-51c12.11,25.79,29.23,35.91,37.52,39.48.71-19-9.88-40.33-10-40.56l-2-3.9L488,1008c25.25-13.55,27.66-27.09,27.32-32.91-30.34,1.57-51.47,22.09-56.18,27.09Z"/>
        </g>
        <g>
          <path class="cls-5" d="M397.31,955.45S418,923.16,454.4,945.08a6.15,6.15,0,0,1-.09,10.59c-5.92,3.46-12.49,10.94-14.55,27.05Z"/>
          <path class="cls-2" d="M443.31,990.33l-52.19-33.52,2.41-3.77c.23-.36,23.48-35.7,63.18-11.8a10.64,10.64,0,0,1-.13,18.3c-6.6,3.86-10.88,12.07-12.37,23.75Zm-39.48-36,32.71,21c3.24-13.67,10-20.32,15.51-23.53a1.65,1.65,0,0,0,.84-1.46,1.58,1.58,0,0,0-.8-1.42C426.6,933.59,410.06,947.27,403.83,954.32Z"/>
        </g>
        <g>
          <path class="cls-5" d="M345.6,981.17c-.64,7,18.4,56.09,73,45.2,4.09-.81,7.07-3.08,14.82-6.4,4.77-2.05,16.11-2,20.5-2,0,0,7.78-8.32,4.66-21.68,0,0-12.81-7.87-22.32-24.34,0,0-21.31-32.83-57.29-14.1C361.43,967,346.38,972.67,345.6,981.17Z"/>
          <path class="cls-2" d="M403.47,1032.42c-19.88,0-33.63-8.13-42.2-15.83-14.2-12.76-20.65-30.11-20.13-35.83.86-9.44,11.64-14.81,26.57-22.24,2.94-1.46,6-3,9.22-4.66,39.14-20.38,62.88,15.26,63.12,15.63l.12.19C449,985,460.84,992.38,461,992.45l1.6,1,.42,1.82c3.61,15.51-5.37,25.35-5.76,25.76l-1.32,1.43h-2.16c-9.73,0-16,.55-18.52,1.65-3,1.26-5.16,2.35-7.1,3.32a34.13,34.13,0,0,1-8.62,3.36A82.1,82.1,0,0,1,403.47,1032.42Zm-53.4-50.87c-.05,2.44,4.56,17.74,18.49,29.51,13.18,11.12,29.73,14.79,49.19,10.92a26.68,26.68,0,0,0,6.39-2.61c1.94-1,4.36-2.16,7.54-3.52,4.49-1.92,12.45-2.32,20-2.37A20.57,20.57,0,0,0,454.58,999a80.26,80.26,0,0,1-22.11-24.66c-1.34-2-20.08-28.79-51.4-12.48-3.23,1.68-6.37,3.25-9.36,4.74C360.81,972,350.51,977.1,350.07,981.55Z"/>
        </g>
        <circle class="cls-2" cx="372.41" cy="977.68" r="6.1"/>
      </g>
      <g id="Sad_icon" data-name="Sad icon">
        <g>
          <path class="cls-4" d="M838,495A135.46,135.46,0,0,0,699,700l-32.39,58.37,65.95-21.77A135.46,135.46,0,1,0,838,495Z"/>
          <path class="cls-2" d="M657.1,766.24l36.69-66.11a139.57,139.57,0,0,1-17.59-96.71c13.73-75.93,86.68-126.54,162.61-112.81s126.54,86.68,112.81,162.62S864.94,779.77,789,766a138.37,138.37,0,0,1-57.28-24.44Zm180.12-266.8C766.15,486.58,697.87,534,685,605a130.67,130.67,0,0,0,17.76,92.63l1.39,2.24-28.11,50.65,57.3-18.92,1.87,1.41a129.53,129.53,0,0,0,55.37,24.19C861.67,770.07,930,722.71,942.8,651.63S908.29,512.29,837.22,499.44Z"/>
        </g>
        <path class="cls-2" d="M878.59,681.72c-29.63-25.71-61-33.57-93.19-23.35a108.19,108.19,0,0,0-39.8,23.13l-6.34-6.34a116,116,0,0,1,43.43-25.33C807,642.11,844.42,640.2,884.46,675Z"/>
        <path class="cls-2" d="M767.23,617.07A18.68,18.68,0,1,1,785.9,598.4,18.7,18.7,0,0,1,767.23,617.07Zm0-28.39a9.72,9.72,0,1,0,9.71,9.72A9.73,9.73,0,0,0,767.23,588.68Z"/>
        <path class="cls-2" d="M852.39,617.07a18.68,18.68,0,1,1,18.68-18.67A18.7,18.7,0,0,1,852.39,617.07Zm0-28.39a9.72,9.72,0,1,0,9.71,9.72A9.73,9.73,0,0,0,852.39,588.68Z"/>
      </g>
    </g>
  </g>
</svg>
